<svg id="Component_16" data-name="Component 16" xmlns="http://www.w3.org/2000/svg" xmlns:xlink="http://www.w3.org/1999/xlink" width="595" height="476" viewBox="0 0 629 499.888">
  <defs>
    <linearGradient id="linear-gradient" x1="0.5" x2="0.5" y2="1" gradientUnits="objectBoundingBox">
      <stop offset="0" stop-color="#9e2060"/>
      <stop offset="1" stop-color="#432f81"/>
    </linearGradient>
  </defs>
  <g id="Polygon_5" data-name="Polygon 5" fill="#fff">
    <path d="M 504.8508605957031 468.5217895507812 C 502.9617919921875 468.5218505859375 501.0315246582031 468.4225158691406 499.1137390136719 468.2265930175781 L 319.9379272460938 449.9197082519531 C 318.1384582519531 449.73583984375 316.3088684082031 449.6426391601562 314.5 449.6426391601562 C 312.6911315917969 449.6426391601562 310.8615417480469 449.73583984375 309.0620727539062 449.9197082519531 L 129.8863372802734 468.2265319824219 C 127.9690704345703 468.4223937988281 126.0387344360352 468.521728515625 124.1490631103516 468.521728515625 C 118.8352661132812 468.521728515625 113.6357345581055 467.7448425292969 108.695068359375 466.2125854492188 C 103.9807968139648 464.7505798339844 99.50373077392578 462.6033935546875 95.38819885253906 459.8307800292969 C 87.44207000732422 454.4773254394531 81.05799865722656 446.9647216796875 76.92606353759766 438.1050415039062 C 72.81193542480469 429.2835083007812 71.17819976806641 419.6305236816406 72.20159912109375 410.1897277832031 C 72.73686981201172 405.251708984375 73.9970703125 400.4216003417969 75.94719696044922 395.8335876464844 C 77.99732971191406 391.0104675292969 80.81739807128906 386.4424438476562 84.32906341552734 382.2564392089844 L 184.9253387451172 262.3441162109375 C 187.7100677490234 259.0247192382812 190.0878601074219 255.3680572509766 191.9927368164062 251.4757843017578 L 267.3437194824219 97.49932098388672 C 269.6797485351562 92.72578430175781 272.6332702636719 88.39385223388672 276.1222534179688 84.62385559082031 C 279.450927734375 81.02712249755859 283.2715454101562 77.93438720703125 287.4779357910156 75.43158721923828 C 295.5653991699219 70.61952209472656 304.9095458984375 68.0760498046875 314.5 68.0760498046875 C 324.0903930664062 68.0760498046875 333.4345397949219 70.61952209472656 341.5220031738281 75.43158721923828 C 345.7283935546875 77.93438720703125 349.5490112304688 81.02712249755859 352.8776550292969 84.62385559082031 C 356.3666687011719 88.39385223388672 359.3201904296875 92.72578430175781 361.6561889648438 97.49932098388672 L 437.0072021484375 251.4757232666016 C 438.9119262695312 255.367919921875 441.289794921875 259.0245971679688 444.0747375488281 262.3441772460938 L 544.6709594726562 382.2564392089844 C 548.1822509765625 386.4419860839844 551.0020141601562 391.0096435546875 553.0518798828125 395.8324584960938 C 555.001708984375 400.4201049804688 556.26171875 405.2499084472656 556.7968139648438 410.1876525878906 C 557.8198852539062 419.6278381347656 556.1860961914062 429.280517578125 552.0720825195312 438.10205078125 C 547.9401245117188 446.9622497558594 541.5560913085938 454.4754638671875 533.6100463867188 459.8294677734375 C 529.4946899414062 462.6023864746094 525.017822265625 464.7497863769531 520.3037109375 466.2120666503906 C 515.3633422851562 467.7445068359375 510.1642761230469 468.5216674804688 504.8508605957031 468.5217895507812 Z" stroke="none"/>
    <path d="M 314.5 68.57598876953125 C 304.9994812011719 68.57598876953125 295.7438049316406 71.09518432617188 287.7336120605469 75.86126708984375 C 283.5684814453125 78.33950805664062 279.7852783203125 81.40191650390625 276.4891967773438 84.96343994140625 C 273.0332641601562 88.69772338867188 270.1073913574219 92.98931884765625 267.7927856445312 97.71905517578125 L 192.4418029785156 251.6955261230469 C 190.5192565917969 255.6241149902344 188.1192016601562 259.3149108886719 185.3083190917969 262.66552734375 L 84.712158203125 382.5778503417969 C 81.23223876953125 386.7258605957031 78.4381103515625 391.2515869140625 76.40740966796875 396.0291748046875 C 74.47637939453125 400.5719909667969 73.22857666015625 405.3543701171875 72.69866943359375 410.2435913085938 C 71.68511962890625 419.5936584472656 73.3035888671875 429.1549072265625 77.379150390625 437.8937377929688 C 81.47265625 446.6710510253906 87.7967529296875 454.1134033203125 95.66754150390625 459.4160461425781 C 99.7425537109375 462.1614379882812 104.1754760742188 464.2874450683594 108.8431396484375 465.7350463867188 C 113.7357788085938 467.2523803710938 118.8854064941406 468.021728515625 124.1489868164062 468.021728515625 C 126.0221862792969 468.021728515625 127.9353942871094 467.9232482910156 129.8353881835938 467.7291259765625 L 309.0111999511719 449.4223022460938 C 310.8270568847656 449.2367248535156 312.6737976074219 449.142578125 314.5 449.142578125 C 316.3262023925781 449.142578125 318.1729431152344 449.2367248535156 319.9888000488281 449.4223022460938 L 499.16455078125 467.7291870117188 C 501.0647888183594 467.9233093261719 502.9779968261719 468.0217895507812 504.8508605957031 468.0217895507812 C 510.1138610839844 468.0217895507812 515.2630004882812 467.2523803710938 520.1553344726562 465.7349243164062 C 524.8226928710938 464.2873229980469 529.2553100585938 462.1611938476562 533.3302001953125 459.4156494140625 C 541.2007446289062 454.1125793457031 547.5247192382812 446.669921875 551.6184692382812 437.8921813964844 C 555.694091796875 429.1531982421875 557.3128662109375 419.5919799804688 556.2997436523438 410.2421875 C 555.77001953125 405.3531188964844 554.5224609375 400.5708618164062 552.591796875 396.0282592773438 C 550.561279296875 391.2508544921875 547.7674560546875 386.7254638671875 544.287841796875 382.5777893066406 L 443.6915893554688 262.6655883789062 C 440.8806762695312 259.3148498535156 438.4805908203125 255.6239929199219 436.5581359863281 251.6954650878906 L 361.2071228027344 97.718994140625 C 358.8925476074219 92.9892578125 355.9666748046875 88.69766235351562 352.5107421875 84.96337890625 C 349.2146606445312 81.40185546875 345.4315185546875 78.33944702148438 341.2663879394531 75.86126708984375 C 333.2561950683594 71.09518432617188 324.0005187988281 68.57598876953125 314.5 68.57598876953125 M 314.5 67.57601928710938 C 333.4573669433594 67.57601928710938 352.4147338867188 77.47714233398438 362.1053466796875 97.27944946289062 L 437.4563293457031 251.2559204101562 C 439.3450622558594 255.1154479980469 441.6961364746094 258.7309875488281 444.4577331542969 262.0228576660156 L 545.0540161132812 381.93505859375 C 575.6389770507812 418.3929443359375 546.4041748046875 473.5609436035156 499.0628662109375 468.7239990234375 L 319.8871459960938 450.4171142578125 C 316.3050537109375 450.0510559082031 312.6950073242188 450.0510559082031 309.1128540039062 450.4171142578125 L 129.9370727539062 468.7239074707031 C 127.9779968261719 468.924072265625 126.0431213378906 469.021728515625 124.1490173339844 469.021728515625 C 80.27166748046875 469.021728515625 54.6265869140625 416.8842163085938 83.94598388671875 381.9351196289062 L 184.5422058105469 262.0227966308594 C 187.3038024902344 258.7309875488281 189.6548767089844 255.1154479980469 191.5436096191406 251.2559814453125 L 266.8945922851562 97.27951049804688 C 276.585205078125 77.4771728515625 295.5426025390625 67.57601928710938 314.5 67.57601928710938 Z" stroke="none" fill="#707070"/>
  </g>
  <g id="Component_3_2" data-name="Component 3 – 2" transform="translate(17.135 24)">
    <path id="Icon_awesome-mountain" data-name="Icon awesome-mountain" d="M590.141,430.065,322.454,13.663a29.742,29.742,0,0,0-50.043,0L4.724,430.065a29.738,29.738,0,0,0,25.021,45.823H565.119a29.742,29.742,0,0,0,25.021-45.823ZM297.433,84.749,376.8,208.2H297.433l-59.486,59.486-35.376-35.376Z" transform="translate(0)" fill="url(#linear-gradient)"/>
    <text id="czat_społeczności" data-name="czat
społeczności" transform="translate(297.433 323.944)" fill="#fff" stroke="#fff" stroke-width="1" font-size="80" font-family="SegoeUI, Segoe UI"><tspan x="-70.469" y="0">czat</tspan><tspan x="-223.574" y="106">społeczności</tspan></text>
    <path id="Icon_awesome-mountain-2" data-name="Icon awesome-mountain" d="M590.141,430.065,322.454,13.663a29.742,29.742,0,0,0-50.043,0L4.724,430.065a29.738,29.738,0,0,0,25.021,45.823H565.119a29.742,29.742,0,0,0,25.021-45.823ZM297.433,84.749,376.8,208.2H297.433l-59.486,59.486-35.376-35.376Z" transform="translate(0)" fill="url(#linear-gradient)"/>
  </g>
</svg>
