<svg xmlns="http://www.w3.org/2000/svg" width="499.792" height="82" viewBox="0 0 499.792 82">
  <g id="Component_13_2" data-name="Component 13 – 2" transform="translate(0 1.335)">
    <text id="Zdjęcia_z_jazdy:_" data-name="Zdjęcia z jazdy: " transform="translate(293.792 64.665)" fill="#073533" stroke="#073533" stroke-width="1" font-size="60" font-family="SegoeUI-Italic, Segoe UI" font-style="italic"><tspan x="-204.917" y="0">Zdjęcia z jazdy: </tspan></text>
    <g id="Icon_ionic-md-photos" data-name="Icon ionic-md-photos" transform="translate(0 1.756)">
      <path id="Path_396" data-name="Path 396" d="M58.208,56.056V14.527a6.668,6.668,0,0,0-6.652-6.652H10.027a6.668,6.668,0,0,0-6.652,6.652V56.072a6.668,6.668,0,0,0,6.652,6.652H51.572A6.688,6.688,0,0,0,58.208,56.056ZM20.4,37.784l7.057,9.97L37.848,32.8,51.556,52.738H10.027Z" transform="translate(-3.375 2.095)" fill="#073533"/>
      <path id="Path_397" data-name="Path 397" d="M56.056,3.375H14.527a6.668,6.668,0,0,0-6.652,6.652v.826h40.7A6.668,6.668,0,0,1,55.231,17.5v40.7h.826a6.668,6.668,0,0,0,6.652-6.652V10.027A6.668,6.668,0,0,0,56.056,3.375Z" transform="translate(2.095 -3.375)" fill="#073533"/>
    </g>
  </g>
</svg>
